# xmcd CD database file
#
# Track frame offsets:
#	150
#	19411
#	37356
#	57914
#	78169
#	95832
#	112891
#	133835
#	156021
#	173739
#	191545
#	205914
#
# Disc length: 3148 seconds
#
# Revision: 3
# Processed by: cddbd v1.4PL0 Copyright (c) Steve Scherf et al.
# Submitted via: CDex 1.50beta10
#
DISCID=a40c4a0c
DTITLE=Dido - No Angel
DYEAR=1900
DGENRE=
TTITLE0=Here with me
TTITLE1=Hunter
TTITLE2=Don´t think of me
TTITLE3=My Lover is gone
TTITLE4=All you want
TTITLE5=Thank you
TTITLE6=Honestly OK
TTITLE7=Slide
TTITLE8=Isobel
TTITLE9=I´m No Angel
TTITLE10=My Life
TTITLE11=Take My Hand
EXTD=
EXTT0=
EXTT1=
EXTT2=
EXTT3=
EXTT4=
EXTT5=
EXTT6=
EXTT7=
EXTT8=
EXTT9=
EXTT10=
EXTT11=
PLAYORDER=
